<?xml version="1.0" standalone="no"?>
<!DOCTYPE svg PUBLIC "-//W3C//DTD SVG 20010904//EN"
 "http://www.w3.org/TR/2001/REC-SVG-20010904/DTD/svg10.dtd">
<svg version="1.0" xmlns="http://www.w3.org/2000/svg"
 width="240.000000pt" height="246.000000pt" viewBox="0 0 240.000000 246.000000"
 preserveAspectRatio="xMidYMid meet">
<metadata>
Created by potrace 1.10, written by Peter Selinger 2001-2011
</metadata>
<g transform="translate(0.000000,246.000000) scale(0.100000,-0.100000)"
fill="#000000" stroke="none">
<path d="M1783 2320 c-30 -32 -53 -67 -53 -80 0 -15 67 -88 218 -238 230 -229
256 -252 287 -252 11 0 43 25 72 56 51 54 52 56 39 82 -8 15 -107 119 -221
232 -114 113 -213 217 -221 233 -24 45 -60 36 -121 -33z"/>
<path d="M1355 2079 c-66 -5 -176 -15 -245 -24 -69 -9 -169 -20 -223 -25 -140
-12 -140 -13 -155 -157 -8 -79 -22 -150 -42 -211 -16 -50 -30 -97 -30 -104 0
-7 -8 -29 -19 -48 -10 -19 -24 -53 -31 -75 -26 -83 -142 -316 -247 -499 -106
-182 -116 -199 -218 -346 -91 -131 -115 -171 -115 -192 0 -30 69 -98 99 -98
14 0 31 4 36 8 6 4 139 138 298 298 l287 290 0 69 c0 57 6 79 28 119 56 102
178 153 266 111 82 -39 146 -128 146 -204 0 -73 -56 -162 -125 -198 -18 -10
-61 -17 -109 -19 l-79 -2 -299 -299 c-220 -221 -298 -305 -298 -322 0 -14 16
-39 39 -62 49 -50 84 -51 139 -6 45 36 90 67 141 100 19 12 60 38 90 58 84 55
260 161 314 189 246 128 393 196 487 227 25 8 74 25 110 39 59 21 151 40 314
64 92 14 97 22 107 192 9 145 15 205 44 452 13 105 14 145 5 165 -6 15 -120
136 -254 270 l-244 244 -48 2 c-27 2 -103 -1 -169 -6z"/>
</g>
</svg>
