<?xml version="1.0" standalone="no"?>
<!DOCTYPE svg PUBLIC "-//W3C//DTD SVG 20010904//EN"
 "http://www.w3.org/TR/2001/REC-SVG-20010904/DTD/svg10.dtd">
<svg version="1.0" xmlns="http://www.w3.org/2000/svg"
 width="336.000000pt" height="315.000000pt" viewBox="0 0 336.000000 315.000000"
 preserveAspectRatio="xMidYMid meet">
<metadata>
Created by potrace 1.10, written by Peter Selinger 2001-2011
</metadata>
<g transform="translate(0.000000,315.000000) scale(0.100000,-0.100000)"
fill="#000000" stroke="none">
<path d="M1399 2923 c-17 -4 -23 -36 -50 -243 -17 -137 -35 -164 -127 -191
-53 -15 -75 -6 -211 90 -106 75 -151 101 -177 101 -19 0 -341 -314 -350 -342
-7 -23 13 -57 110 -187 42 -57 81 -120 87 -140 10 -33 8 -43 -15 -89 -25 -49
-29 -52 -93 -71 -38 -11 -111 -25 -163 -31 -128 -16 -136 -18 -154 -36 -14
-13 -16 -51 -16 -254 l0 -239 26 -20 c19 -15 41 -21 75 -21 63 0 239 -34 277
-54 31 -16 72 -86 72 -123 0 -20 -42 -88 -119 -193 -68 -92 -93 -138 -87 -158
10 -30 332 -342 353 -342 24 0 74 31 272 169 52 37 89 39 151 8 57 -28 76 -65
90 -182 24 -197 30 -223 53 -229 36 -10 491 -6 507 4 8 5 20 37 26 72 6 35 21
117 33 182 12 66 26 125 32 133 17 20 115 45 149 38 29 -6 44 -16 200 -130 77
-56 111 -66 152 -44 11 6 88 78 171 159 185 182 182 170 82 300 -141 184 -157
221 -115 281 46 64 122 89 330 108 137 13 130 -2 130 273 0 282 8 268 -150
287 -198 24 -265 48 -307 111 -36 52 -30 86 27 166 27 38 67 92 90 119 49 61
73 110 65 135 -9 29 -320 327 -350 334 -30 8 -65 -11 -170 -90 -122 -91 -137
-99 -179 -98 -63 1 -115 22 -130 52 -7 15 -16 50 -20 77 -12 92 -59 300 -70
307 -11 8 -479 9 -507 1z m425 -1093 c123 -72 176 -162 176 -300 0 -138 -54
-229 -179 -301 -72 -42 -75 -43 -167 -42 -91 0 -95 1 -162 41 -123 73 -192
182 -192 302 0 120 75 237 195 305 64 37 103 45 189 40 58 -3 79 -10 140 -45z"/>
</g>
</svg>
