<?xml version="1.0" standalone="no"?>
<!DOCTYPE svg PUBLIC "-//W3C//DTD SVG 20010904//EN"
 "http://www.w3.org/TR/2001/REC-SVG-20010904/DTD/svg10.dtd">
<svg version="1.0" xmlns="http://www.w3.org/2000/svg"
 width="330.000000pt" height="288.000000pt" viewBox="0 0 330.000000 288.000000"
 preserveAspectRatio="xMidYMid meet">
<metadata>
Created by potrace 1.10, written by Peter Selinger 2001-2011
</metadata>
<g transform="translate(0.000000,288.000000) scale(0.100000,-0.100000)"
fill="#000000" stroke="none">
<path d="M1175 2638 c-67 -35 -102 -83 -148 -203 -9 -22 -18 -55 -21 -74 -13
-73 -1 -71 -371 -71 -221 0 -343 -4 -366 -11 -46 -16 -86 -55 -110 -106 -18
-40 -19 -75 -19 -891 0 -833 0 -850 20 -895 22 -50 64 -87 119 -106 53 -17
2682 -15 2733 2 47 16 84 50 109 99 18 36 19 72 19 898 0 827 -1 862 -19 898
-25 47 -67 86 -110 101 -23 7 -145 11 -367 11 l-334 0 -14 23 c-9 12 -20 46
-26 75 -7 28 -16 54 -21 58 -5 3 -9 14 -9 25 0 45 -80 144 -137 169 -43 19
-66 20 -467 20 -407 -1 -422 -2 -461 -22z m645 -563 c23 -8 51 -15 61 -15 11
0 48 -13 82 -30 35 -16 67 -30 70 -30 37 0 274 -211 298 -265 5 -11 18 -33 29
-50 11 -16 22 -37 26 -45 3 -8 10 -23 15 -32 37 -70 69 -222 69 -328 0 -311
-184 -598 -470 -732 -72 -33 -87 -39 -160 -58 -103 -27 -296 -27 -395 -1 -287
77 -493 264 -594 541 -33 89 -48 257 -32 357 32 196 108 343 251 481 100 97
216 160 375 203 82 23 315 25 375 4z m1158 -197 c14 -14 16 -106 2 -128 -8
-12 -40 -15 -192 -15 l-183 0 -3 64 c-2 35 -1 70 2 77 7 19 356 20 374 2z"/>
<path d="M1499 1860 c-224 -61 -372 -199 -443 -415 -22 -68 -22 -267 0 -327
35 -96 50 -125 88 -178 70 -96 151 -162 252 -205 60 -26 189 -55 244 -55 107
0 278 58 365 123 51 39 135 126 146 152 5 11 18 35 29 54 46 75 63 150 63 271
0 121 -17 196 -63 271 -11 19 -23 41 -26 49 -22 49 -148 168 -204 193 -8 4
-22 11 -30 16 -109 65 -289 87 -421 51z"/>
</g>
</svg>
