<?xml version="1.0" standalone="no"?>
<!DOCTYPE svg PUBLIC "-//W3C//DTD SVG 20010904//EN"
 "http://www.w3.org/TR/2001/REC-SVG-20010904/DTD/svg10.dtd">
<svg version="1.0" xmlns="http://www.w3.org/2000/svg"
 width="330.000000pt" height="285.000000pt" viewBox="0 0 330.000000 285.000000"
 preserveAspectRatio="xMidYMid meet">
<metadata>
Created by potrace 1.10, written by Peter Selinger 2001-2011
</metadata>
<g transform="translate(0.000000,285.000000) scale(0.100000,-0.100000)"
fill="#000000" stroke="none">
<path d="M596 2768 c-15 -47 -36 -152 -36 -174 0 -14 -6 -52 -14 -83 -8 -31
-16 -83 -18 -116 l-3 -60 980 -5 980 -5 -2 -40 c-2 -40 -20 -129 -52 -260
l-17 -70 -990 -5 -989 -5 -12 -40 c-6 -22 -19 -76 -28 -120 -9 -44 -23 -107
-30 -140 -21 -94 -23 -114 -10 -125 8 -6 356 -11 991 -12 l979 -3 3 -29 c3
-27 -3 -57 -43 -226 -7 -30 -21 -91 -30 -135 -25 -121 -47 -194 -61 -206 -8
-6 -28 -15 -46 -19 -18 -5 -49 -14 -68 -21 -19 -6 -51 -17 -70 -24 -19 -7 -51
-18 -70 -24 -19 -7 -48 -16 -65 -21 -16 -5 -46 -14 -65 -21 -19 -6 -51 -17
-70 -24 -19 -7 -51 -18 -70 -24 -19 -7 -48 -16 -65 -21 -39 -11 -91 -29 -133
-46 -42 -18 -73 -18 -114 0 -18 8 -51 21 -73 29 -107 40 -132 50 -158 63 -16
8 -36 14 -45 14 -9 0 -26 7 -36 15 -11 8 -30 15 -42 15 -13 0 -25 4 -29 10 -3
5 -20 14 -38 19 -18 5 -57 19 -87 31 -30 12 -70 26 -87 31 -39 12 -49 39 -34
95 5 22 11 62 13 89 l3 50 -244 0 -245 0 -8 -30 c-5 -16 -13 -61 -18 -100 -5
-38 -13 -95 -19 -125 -35 -192 -41 -229 -41 -265 0 -36 4 -42 39 -57 20 -10
43 -18 50 -18 7 0 25 -6 39 -14 15 -8 45 -21 67 -29 22 -8 59 -22 83 -31 23
-9 60 -23 82 -31 22 -8 58 -22 80 -30 22 -8 59 -22 83 -31 23 -8 55 -22 70
-30 16 -8 35 -14 42 -14 7 0 26 -6 42 -14 15 -8 46 -21 68 -29 45 -17 100 -37
163 -61 23 -9 61 -23 85 -32 23 -9 56 -23 74 -31 39 -19 105 -19 153 0 48 20
99 37 135 47 17 5 46 14 65 21 19 6 51 17 70 24 19 7 51 18 70 24 19 7 49 16
65 21 17 5 46 14 65 21 19 6 51 17 70 24 19 7 51 18 70 24 19 7 49 16 65 21
17 5 46 14 65 21 19 6 51 17 70 24 19 7 51 18 70 25 19 6 44 14 55 17 11 2 83
26 159 52 l140 47 17 75 c17 71 34 151 65 309 9 41 21 104 29 140 7 36 21 103
30 150 9 47 23 114 30 150 17 82 42 204 60 295 15 79 36 183 60 300 9 44 23
114 31 155 9 41 21 104 29 140 7 36 21 103 30 150 9 47 23 114 30 150 25 116
35 171 35 186 0 12 -173 14 -1235 14 -980 0 -1236 -3 -1239 -12z"/>
</g>
</svg>
